<svg preserveAspectRatio="none" overflow="visible" style="display: block;" width="19" height="7" viewBox="0 0 19 7" fill="none" xmlns="http://www.w3.org/2000/svg">
<path id="more" d="M9.5 0C11.433 4.98644e-05 13 1.56703 13 3.5C13 5.43297 11.433 6.99995 9.5 7C7.567 7 6 5.433 6 3.5C6 1.567 7.567 0 9.5 0ZM2 1.5C3.10457 1.5 4 2.39543 4 3.5C3.99996 4.60454 3.10455 5.5 2 5.5C0.895453 5.5 3.5369e-05 4.60454 0 3.5C0 2.39543 0.895431 1.5 2 1.5ZM17 1.5C18.1046 1.5 19 2.39543 19 3.5C19 4.60457 18.1046 5.5 17 5.5C15.8954 5.5 15 4.60457 15 3.5C15 2.39543 15.8954 1.5 17 1.5Z" fill="#333333"/>
</svg>
