<svg width="18" height="18" viewBox="0 0 18 18" fill="none" xmlns="http://www.w3.org/2000/svg">

<g id="&#230;&#136;&#145;&#231;&#154;&#132;">

<g id="Frame 1321318301">
<g id="Group 1321318300">
<g id="Frame 1321317953">
<g id="&#229;&#174;&#182;&#229;&#177;&#133;&#229;&#175;&#172;&#233;&#160;&#187;">
<g id="&#229;&#190;&#133;&#228;&#187;&#152;&#230;&#172;&#190;">
<g id="Frame">
<path id="Vector" d="M2.63928 18C1.93958 17.9992 1.26877 17.7209 0.773982 17.2262C0.279198 16.7315 0.000850345 16.0607 0 15.361L0 2.63901C0.000850345 1.93932 0.279198 1.26853 0.773982 0.773793C1.26877 0.279059 1.93958 0.000779363 2.63928 0L15.3599 0C16.0596 0.000779497 16.7304 0.279068 17.2251 0.773809C17.7199 1.26855 17.9981 1.93934 17.9989 2.63901V15.3599C17.9984 16.0598 17.7203 16.7308 17.2255 17.2258C16.7307 17.7208 16.0598 17.9992 15.3599 18H2.63928ZM2.64597 1.48429C2.33772 1.48458 2.04218 1.60713 1.82419 1.82507C1.6062 2.04301 1.48358 2.33853 1.48322 2.64678V15.361C1.48358 15.6692 1.6062 15.9648 1.82419 16.1827C2.04218 16.4006 2.33772 16.5232 2.64597 16.5235H15.3599C15.6681 16.5231 15.9636 16.4005 16.1815 16.1826C16.3995 15.9647 16.522 15.6692 16.5224 15.361V2.6457C16.522 2.3375 16.3995 2.04203 16.1815 1.8241C15.9636 1.60617 15.6681 1.48358 15.3599 1.48322L2.64597 1.48429Z" fill="#333333"/>
<path id="Vector_2" d="M11.814 12.3693C10.9205 12.3684 10.0637 12.0131 9.43189 11.3812C8.80004 10.7494 8.4447 9.89265 8.44385 8.99909C8.4447 8.10552 8.80004 7.2488 9.43189 6.61695C10.0637 5.9851 10.9205 5.62976 11.814 5.62891H16.9812C17.2511 5.62954 17.5098 5.73715 17.7006 5.92814C17.8913 6.11914 17.9986 6.37795 17.9989 6.64789V11.35C17.9986 11.6202 17.8911 11.8793 17.7001 12.0703C17.5091 12.2614 17.2501 12.3689 16.9799 12.3693H11.814ZM11.7961 7.10544C11.294 7.10593 10.8126 7.30559 10.4575 7.6606C10.1025 8.01562 9.90274 8.49699 9.90217 8.99909C9.90274 9.50142 10.1027 9.98299 10.458 10.338C10.8134 10.6931 11.2951 10.8926 11.7974 10.8927H16.5419V7.10544H11.7961Z" fill="#333333"/>
</g>
</g>
</g>
</g>
</g>
</g>
</g>

</svg>
