<svg width="16" height="16" viewBox="0 0 16 16" fill="none" xmlns="http://www.w3.org/2000/svg">

<g id="&#229;&#143;&#145;&#229;&#184;&#131;-&#229;&#136;&#155;&#229;&#187;&#186;&#229;&#176;&#143;&#233;&#153;&#162;">

<g id="Frame 1321318003">
<g id="Frame 1171276761">

<g id="Group 1321317917">
<g id="Group 1321317732">
<g id="Frame">
<path id="Vector" d="M8 0.5C3.92857 0.5 0.5 3.92857 0.5 8C0.5 12.0714 3.92857 15.5 8 15.5C12.0714 15.5 15.5 12.0714 15.5 8C15.5 3.92857 12.0714 0.5 8 0.5ZM11.2143 10.1429C11.5357 10.4643 11.5357 10.8929 11.2143 11.1071C10.8929 11.4286 10.4643 11.4286 10.25 11.1071L8.10714 8.96429L5.85714 11.2143C5.53571 11.5357 5.10714 11.5357 4.78571 11.2143C4.46429 10.8929 4.46429 10.3571 4.78571 10.1429L7.03571 7.89286L4.89286 5.75C4.57143 5.53571 4.57143 5.10714 4.89286 4.78571C5.21429 4.46429 5.64286 4.46429 5.85714 4.78571L8 6.92857L10.25 4.67857C10.5714 4.35714 11 4.35714 11.3214 4.67857C11.6429 5 11.6429 5.42857 11.3214 5.75L9.07143 8L11.2143 10.1429Z" fill="#CCCCCC"/>
</g>
</g>
</g>
</g>
</g>
</g>

</svg>
